<svg width="75" height="75" viewBox="0 0 75 75" fill="none" xmlns="http://www.w3.org/2000/svg">
<path d="M52.5664 48.9002L56.5382 54.8572C56.5382 54.8572 57.2371 55.0513 57.6595 54.5652L59.7839 52.3417C59.7839 52.3417 60.0646 52.0122 59.6446 51.2426L54.3543 47.433C54.3531 47.434 52.6367 46.7385 52.5664 48.9002Z" fill="#013E40"/>
<path d="M59.9979 32.4911L66.8106 33.9021C66.8106 33.9021 67.4458 33.534 67.4243 32.8769L67.4803 29.7357C67.4803 29.7357 67.4632 29.295 66.6487 29.0459L60.312 30.1393C60.3125 30.1393 58.6142 30.8841 59.9979 32.4911Z" fill="#013E40"/>
<path d="M54.2085 15.5987L59.8451 11.3547C59.8451 11.3547 60.0202 10.6185 59.5461 10.1864L57.3876 8.00071C57.3876 8.00071 57.0683 7.71262 56.339 8.16414L52.7813 13.7543C52.7801 13.7541 52.1424 15.5604 54.2085 15.5987Z" fill="#013E40"/>
<path d="M38.625 7.77467L39.7446 0.607375C39.7446 0.607375 39.3726 -0.0429044 38.7454 0.00224697L35.7404 0.0491166C35.7404 0.0491166 35.32 0.0812623 35.1094 0.938894L36.3659 7.52413C36.3659 7.52413 37.1351 9.27424 38.625 7.77467Z" fill="#013E40"/>
<path d="M22.314 13.8613L18.4181 7.84976C18.4181 7.84976 17.7204 7.6451 17.2933 8.12753L15.1412 10.3208C15.1412 10.3208 14.8557 10.6462 15.2679 11.4206L20.5091 15.3022C20.5091 15.3022 22.2165 16.0214 22.314 13.8613Z" fill="#013E40"/>
<path d="M14.9161 30.0238L8.05739 28.8877C8.05739 28.8877 7.43709 29.2806 7.48289 29.936L7.54117 33.0777C7.54117 33.0777 7.57521 33.5172 8.3968 33.7331L14.6894 32.385C14.6894 32.385 16.358 31.5742 14.9161 30.0238Z" fill="#013E40"/>
<path d="M20.6354 47.1895L14.894 51.2747C14.894 51.2747 14.6998 52.0054 15.1619 52.4518L17.2625 54.6961C17.2625 54.6961 17.5765 54.9933 18.3158 54.5624L22.0187 49.0748C22.0187 49.0748 22.702 47.2876 20.6354 47.1895Z" fill="#013E40"/>
<path d="M26.8296 58.4709L28.0089 57.7998H46.7855L47.731 58.4709C47.731 58.4709 50.043 58.8238 49.3076 61.5724C49.3076 61.5724 49.0858 62.549 48.0127 62.7454L48.0345 63.429C48.0345 63.429 49.6093 64.0373 49.4516 66.3094C49.4516 66.3094 49.157 67.7979 47.638 67.8725C47.638 67.8725 46.1212 71.0235 41.8472 71.755C41.8472 71.755 41.521 74.8972 37.1532 74.9983C37.1532 74.9983 33.9072 75.173 32.926 71.7778C32.926 71.7778 29.9599 71.5344 27.0637 67.8975C27.0637 67.8975 25.3362 67.5059 25.383 65.3568C25.383 65.3568 25.3597 64.0628 26.7135 63.4751V62.7927C26.7135 62.7927 24.9385 61.9876 25.4766 59.8863C25.4753 59.8878 25.755 58.6913 26.8296 58.4709Z" fill="#013E40"/>
<path d="M32.9582 54.0575C32.9582 54.0575 32.7134 42.831 30.4891 36.6554L28.2285 28.6817L34.0681 30.6225L37.425 27.7529L40.7476 30.3901L46.6789 28.8878C46.6789 28.8878 43.7942 38.5372 42.8964 41.3185C42.8964 41.3185 41.5905 49.0268 41.541 54.1044L32.9582 54.0575Z" fill="#013E40"/>
<path d="M29.9395 54.2024H27.7152C27.7152 54.2024 26.9805 54.4468 26.6132 53.0972C26.6132 53.0972 27.103 49.3756 24.3277 46.349C24.3277 46.349 21.5931 41.8103 21.0217 41.1968C21.0217 41.1968 11.7976 25.9418 27.8785 13.9178C27.8785 13.9178 36.9393 8.27411 46.4083 13.9997C46.4083 13.9997 54.4283 17.2102 56.0201 27.8845C56.0201 27.8845 57.6118 36.9639 52.7753 42.3624C52.7753 42.3624 48.0929 48.5968 47.9545 52.8412C47.9545 52.8412 47.8984 53.9455 46.6943 54.2579H44.3875C44.3875 54.2579 46.8369 45.6749 50.9999 38.9881C50.9999 38.9881 55.3878 32.075 51.1429 24.2226C51.1429 24.2226 45.5921 9.99011 29.4297 17.1064C29.4297 17.1064 20.374 21.9351 22.0449 34.7348C22.0449 34.7348 23.6339 40.3365 26.9808 44.0993C26.9808 44.0993 29.3885 47.5372 29.9395 54.2024Z" fill="#013E40"/>
</svg>
